<svg xmlns="http://www.w3.org/2000/svg" xmlns:xlink="http://www.w3.org/1999/xlink" width="1024" height="400">\n<path  d="M 0 0
L 1024 0
L 1024 400
L 0 400
L 0 0" style="stroke-width:0;stroke:rgba(255,255,255,1.0);fill:rgba(255,255,255,1.0)"/><path  d="M 38 11
L 957 11
L 957 351
L 38 351
L 38 11" style="stroke-width:0;stroke:rgba(255,255,255,1.0);fill:rgba(255,255,255,1.0)"/><path  d="M 38 351
L 957 351" style="stroke-width:2;stroke:rgba(85,85,85,1.0);fill:none"/><path  d="M 38 351
L 38 356" style="stroke-width:2;stroke:rgba(85,85,85,1.0);fill:none"/><text x="5" y="373" style="stroke-width:0;stroke:none;fill:rgba(51,51,51,1.0);font-size:12.8px;font-family:'Roboto Medium',sans-serif">2016-12-30</text><path  d="M 153 351
L 153 356" style="stroke-width:2;stroke:rgba(85,85,85,1.0);fill:none"/><text x="120" y="373" style="stroke-width:0;stroke:none;fill:rgba(51,51,51,1.0);font-size:12.8px;font-family:'Roboto Medium',sans-serif">2017-06-17</text><path  d="M 268 351
L 268 356" style="stroke-width:2;stroke:rgba(85,85,85,1.0);fill:none"/><text x="235" y="373" style="stroke-width:0;stroke:none;fill:rgba(51,51,51,1.0);font-size:12.8px;font-family:'Roboto Medium',sans-serif">2017-12-02</text><path  d="M 383 351
L 383 356" style="stroke-width:2;stroke:rgba(85,85,85,1.0);fill:none"/><text x="350" y="373" style="stroke-width:0;stroke:none;fill:rgba(51,51,51,1.0);font-size:12.8px;font-family:'Roboto Medium',sans-serif">2018-05-20</text><path  d="M 498 351
L 498 356" style="stroke-width:2;stroke:rgba(85,85,85,1.0);fill:none"/><text x="465" y="373" style="stroke-width:0;stroke:none;fill:rgba(51,51,51,1.0);font-size:12.8px;font-family:'Roboto Medium',sans-serif">2018-11-05</text><path  d="M 613 351
L 613 356" style="stroke-width:2;stroke:rgba(85,85,85,1.0);fill:none"/><text x="580" y="373" style="stroke-width:0;stroke:none;fill:rgba(51,51,51,1.0);font-size:12.8px;font-family:'Roboto Medium',sans-serif">2019-04-23</text><path  d="M 728 351
L 728 356" style="stroke-width:2;stroke:rgba(85,85,85,1.0);fill:none"/><text x="695" y="373" style="stroke-width:0;stroke:none;fill:rgba(51,51,51,1.0);font-size:12.8px;font-family:'Roboto Medium',sans-serif">2019-10-09</text><path  d="M 843 351
L 843 356" style="stroke-width:2;stroke:rgba(85,85,85,1.0);fill:none"/><text x="810" y="373" style="stroke-width:0;stroke:none;fill:rgba(51,51,51,1.0);font-size:12.8px;font-family:'Roboto Medium',sans-serif">2020-03-26</text><path  d="M 957 351
L 957 356" style="stroke-width:2;stroke:rgba(85,85,85,1.0);fill:none"/><text x="924" y="373" style="stroke-width:0;stroke:none;fill:rgba(51,51,51,1.0);font-size:12.8px;font-family:'Roboto Medium',sans-serif">2020-09-11</text><text x="483" y="395" style="stroke-width:0;stroke:none;fill:rgba(51,51,51,1.0);font-size:12.8px;font-family:'Roboto Medium',sans-serif">Time</text><path  d="M 959 351
L 959 11" style="stroke-width:2;stroke:rgba(85,85,85,1.0);fill:none"/><path  d="M 959 351
L 964 351" style="stroke-width:2;stroke:rgba(85,85,85,1.0);fill:none"/><text x="969" y="357" style="stroke-width:0;stroke:none;fill:rgba(51,51,51,1.0);font-size:12.8px;font-family:'Roboto Medium',sans-serif">0</text><path  d="M 959 308
L 964 308" style="stroke-width:2;stroke:rgba(85,85,85,1.0);fill:none"/><text x="969" y="314" style="stroke-width:0;stroke:none;fill:rgba(51,51,51,1.0);font-size:12.8px;font-family:'Roboto Medium',sans-serif">780</text><path  d="M 959 266
L 964 266" style="stroke-width:2;stroke:rgba(85,85,85,1.0);fill:none"/><text x="969" y="272" style="stroke-width:0;stroke:none;fill:rgba(51,51,51,1.0);font-size:12.8px;font-family:'Roboto Medium',sans-serif">1550</text><path  d="M 959 223
L 964 223" style="stroke-width:2;stroke:rgba(85,85,85,1.0);fill:none"/><text x="969" y="229" style="stroke-width:0;stroke:none;fill:rgba(51,51,51,1.0);font-size:12.8px;font-family:'Roboto Medium',sans-serif">2330</text><path  d="M 959 181
L 964 181" style="stroke-width:2;stroke:rgba(85,85,85,1.0);fill:none"/><text x="969" y="187" style="stroke-width:0;stroke:none;fill:rgba(51,51,51,1.0);font-size:12.8px;font-family:'Roboto Medium',sans-serif">3100</text><path  d="M 959 138
L 964 138" style="stroke-width:2;stroke:rgba(85,85,85,1.0);fill:none"/><text x="969" y="144" style="stroke-width:0;stroke:none;fill:rgba(51,51,51,1.0);font-size:12.8px;font-family:'Roboto Medium',sans-serif">3880</text><path  d="M 959 96
L 964 96" style="stroke-width:2;stroke:rgba(85,85,85,1.0);fill:none"/><text x="969" y="102" style="stroke-width:0;stroke:none;fill:rgba(51,51,51,1.0);font-size:12.8px;font-family:'Roboto Medium',sans-serif">4650</text><path  d="M 959 53
L 964 53" style="stroke-width:2;stroke:rgba(85,85,85,1.0);fill:none"/><text x="969" y="59" style="stroke-width:0;stroke:none;fill:rgba(51,51,51,1.0);font-size:12.8px;font-family:'Roboto Medium',sans-serif">5430</text><path  d="M 959 11
L 964 11" style="stroke-width:2;stroke:rgba(85,85,85,1.0);fill:none"/><text x="969" y="17" style="stroke-width:0;stroke:none;fill:rgba(51,51,51,1.0);font-size:12.8px;font-family:'Roboto Medium',sans-serif">6200</text><text x="1009" y="150" style="stroke-width:0;stroke:none;fill:rgba(51,51,51,1.0);font-size:12.8px;font-family:'Roboto Medium',sans-serif" transform="rotate(90.00,1009,150)">Stargazers</text><path  d="M 38 351
L 39 350
L 39 350
L 39 350
L 39 350
L 39 350
L 39 350
L 39 350
L 39 350
L 39 350
L 39 350
L 39 350
L 39 350
L 39 350
L 39 350
L 39 350
L 39 350
L 39 350
L 39 350
L 39 349
L 39 349
L 39 349
L 39 349
L 39 349
L 39 349
L 39 349
L 39 349
L 39 349
L 39 349
L 39 349
L 39 349
L 39 349
L 39 349
L 39 349
L 39 349
L 39 349
L 39 349
L 39 348
L 39 348
L 39 348
L 39 348
L 39 348
L 39 348
L 39 348
L 39 348
L 39 348
L 39 348
L 39 348
L 39 348
L 39 348
L 39 348
L 39 348
L 39 348
L 39 348
L 39 348
L 39 347
L 39 347
L 39 347
L 39 347
L 39 347
L 39 347
L 39 347
L 39 347
L 39 347
L 39 347
L 39 347
L 39 347
L 39 347
L 39 347
L 39 347
L 39 347
L 39 347
L 39 347
L 39 346
L 39 346
L 39 346
L 39 346
L 39 346
L 39 346
L 39 346
L 39 346
L 39 346
L 39 346
L 39 346
L 39 346
L 39 346
L 39 346
L 39 346
L 39 346
L 39 346
L 39 346
L 39 346
L 39 345
L 39 345
L 39 345
L 39 345
L 39 345
L 39 345
L 39 345
L 39 345
L 39 345
L 39 345
L 39 345
L 39 345
L 39 345
L 39 345
L 39 345
L 39 345
L 39 345
L 39 345
L 39 344
L 39 344
L 39 344
L 39 344
L 39 344
L 39 344
L 39 344
L 39 344
L 39 344
L 39 344
L 39 344
L 39 344
L 39 344
L 39 344
L 39 344
L 39 344
L 39 344
L 39 344
L 39 343
L 39 343
L 39 343
L 39 343
L 39 343
L 39 343
L 39 343
L 39 343
L 39 343
L 39 343
L 39 343
L 39 343
L 39 343
L 39 343
L 39 343
L 39 343
L 39 343
L 39 343
L 39 342
L 39 342
L 39 342
L 39 342
L 39 342
L 39 342
L 39 342
L 39 342
L 39 342
L 39 342
L 39 342
L 40 342
L 40 342
L 40 342
L 40 342
L 40 342
L 40 342
L 40 342
L 40 342
L 40 341
L 40 341
L 40 341
L 40 341
L 40 341
L 40 341
L 40 341
L 40 341
L 40 341
L 40 341
L 40 341
L 40 341
L 40 341
L 40 341
L 40 341
L 40 341
L 40 341
L 40 341
L 40 340
L 40 340
L 40 340
L 40 340
L 40 340
L 40 340
L 40 340
L 40 340
L 40 340
L 40 340
L 40 340
L 40 340
L 40 340
L 40 340
L 40 340
L 40 340
L 40 340
L 40 340
L 40 339
L 40 339
L 40 339
L 40 339
L 40 339
L 40 339
L 40 339
L 40 339
L 40 339
L 40 339
L 40 339
L 40 339
L 40 339
L 40 339
L 40 339
L 40 339
L 40 339
L 40 339
L 40 338
L 40 338
L 40 338
L 40 338
L 40 338
L 40 338
L 40 338
L 40 338
L 40 338
L 40 338
L 40 338
L 40 338
L 40 338
L 40 338
L 40 338
L 40 338
L 40 338
L 40 338
L 40 338
L 40 337
L 40 337
L 40 337
L 40 337
L 40 337
L 40 337
L 40 337
L 40 337
L 40 337
L 40 337
L 40 337
L 40 337
L 40 337
L 40 337
L 40 337
L 40 337
L 40 337
L 40 337
L 40 336
L 40 336
L 40 336
L 40 336
L 40 336
L 40 336
L 40 336
L 40 336
L 40 336
L 40 336
L 40 336
L 40 336
L 40 336
L 40 336
L 40 336
L 40 336
L 40 336
L 40 336
L 40 335
L 40 335
L 41 335
L 41 335
L 41 335
L 41 335
L 41 335
L 41 335
L 41 335
L 41 335
L 41 335
L 41 335
L 41 335
L 41 335
L 41 335
L 41 335
L 41 335
L 41 335
L 41 334
L 41 334
L 41 334
L 41 334
L 41 334
L 41 334
L 41 334
L 41 334
L 41 334
L 41 334
L 41 334
L 41 334
L 41 334
L 41 334
L 41 334
L 41 334
L 41 334
L 41 334
L 41 334
L 41 333
L 41 333
L 41 333
L 41 333
L 41 333
L 41 333
L 41 333
L 41 333
L 41 333
L 41 333
L 41 333
L 41 333
L 41 333
L 41 333
L 41 333
L 41 333
L 41 333
L 41 333
L 41 332
L 41 332
L 41 332
L 41 332
L 42 332
L 42 332
L 42 332
L 42 332
L 42 332
L 42 332
L 42 332
L 42 332
L 42 332
L 42 332
L 42 332
L 42 332
L 42 332
L 42 332
L 42 331
L 42 331
L 42 331
L 42 331
L 42 331
L 42 331
L 42 331
L 42 331
L 42 331
L 42 331
L 42 331
L 42 331
L 42 331
L 42 331
L 42 331
L 42 331
L 42 331
L 42 331
L 42 330
L 42 330
L 42 330
L 42 330
L 42 330
L 42 330
L 42 330
L 42 330
L 43 330
L 43 330
L 43 330
L 43 330
L 43 330
L 43 330
L 43 330
L 43 330
L 43 330
L 43 330
L 43 329
L 43 329
L 43 329
L 43 329
L 43 329
L 43 329
L 43 329
L 43 329
L 43 329
L 43 329
L 43 329
L 43 329
L 43 329
L 43 329
L 43 329
L 43 329
L 43 329
L 43 329
L 43 329
L 43 328
L 43 328
L 44 328
L 44 328
L 44 328
L 44 328
L 44 328
L 44 328
L 44 328
L 44 328
L 44 328
L 44 328
L 44 328
L 44 328
L 44 328
L 45 328
L 45 328
L 45 328
L 45 327
L 45 327
L 45 327
L 45 327
L 45 327
L 45 327
L 45 327
L 46 327
L 46 327
L 46 327
L 46 327
L 46 327
L 46 327
L 46 327
L 47 327
L 47 327
L 47 327
L 47 327
L 48 326
L 48 326
L 48 326
L 48 326
L 48 326
L 48 326
L 48 326
L 49 326
L 49 326
L 49 326
L 49 326
L 49 326
L 49 326
L 49 326
L 49 326
L 50 326
L 50 326
L 50 326
L 51 325
L 51 325
L 51 325
L 51 325
L 51 325
L 51 325
L 51 325
L 51 325
L 52 325
L 52 325
L 52 325
L 53 325
L 53 325
L 53 325
L 53 325
L 54 325
L 54 325
L 56 325
L 56 325
L 57 324
L 59 324
L 60 324
L 60 324
L 60 324
L 60 324
L 60 324
L 60 324
L 61 324
L 61 324
L 62 324
L 62 324
L 62 324
L 62 324
L 62 324
L 62 324
L 63 324
L 66 324
L 66 323
L 66 323
L 66 323
L 66 323
L 66 323
L 66 323
L 66 323
L 66 323
L 66 323
L 66 323
L 66 323
L 66 323
L 66 323
L 66 323
L 66 323
L 66 323
L 66 323
L 67 323
L 67 322
L 67 322
L 67 322
L 68 322
L 68 322
L 69 322
L 69 322
L 69 322
L 69 322
L 69 322
L 70 322
L 72 322
L 74 322
L 74 322
L 77 322
L 78 322
L 78 322
L 78 322
L 78 321
L 78 321
L 78 321
L 78 321
L 79 321
L 79 321
L 79 321
L 79 321
L 79 321
L 79 321
L 80 321
L 80 321
L 80 321
L 81 321
L 81 321
L 81 321
L 81 321
L 81 321
L 81 321
L 81 320
L 81 320
L 81 320
L 81 320
L 81 320
L 81 320
L 81 320
L 81 320
L 81 320
L 81 320
L 82 320
L 83 320
L 84 320
L 84 320
L 84 320
L 84 320
L 86 320
L 90 320
L 91 319
L 91 319
L 92 319
L 94 319
L 94 319
L 95 319
L 96 319
L 96 319
L 98 319
L 99 319
L 99 319
L 100 319
L 101 319
L 101 319
L 104 319
L 104 319
L 104 319
L 106 319
L 107 318
L 108 318
L 108 318
L 110 318
L 110 318
L 110 318
L 111 318
L 111 318
L 111 318
L 111 318
L 112 318
L 112 318
L 112 318
L 112 318
L 112 318
L 112 318
L 112 318
L 112 318
L 112 317
L 112 317
L 112 317
L 112 317
L 112 317
L 113 317
L 113 317
L 113 317
L 113 317
L 113 317
L 113 317
L 113 317
L 113 317
L 113 317
L 114 317
L 114 317
L 114 317
L 114 317
L 114 317
L 114 316
L 114 316
L 115 316
L 115 316
L 115 316
L 115 316
L 115 316
L 115 316
L 115 316
L 115 316
L 115 316
L 115 316
L 115 316
L 115 316
L 115 316
L 115 316
L 115 316
L 115 316
L 116 315
L 116 315
L 116 315
L 116 315
L 116 315
L 116 315
L 116 315
L 116 315
L 117 315
L 117 315
L 117 315
L 117 315
L 117 315
L 117 315
L 117 315
L 117 315
L 117 315
L 117 315
L 117 314
L 117 314
L 117 314
L 117 314
L 117 314
L 117 314
L 118 314
L 118 314
L 118 314
L 118 314
L 118 314
L 118 314
L 118 314
L 118 314
L 118 314
L 118 314
L 118 314
L 118 314
L 118 313
L 119 313
L 119 313
L 120 313
L 121 313
L 121 313
L 122 313
L 122 313
L 122 313
L 122 313
L 122 313
L 123 313
L 124 313
L 124 313
L 125 313
L 125 313
L 125 313
L 127 313
L 127 312
L 127 312
L 127 312
L 127 312
L 128 312
L 128 312
L 128 312
L 128 312
L 128 312
L 128 312
L 128 312
L 128 312
L 129 312
L 129 312
L 129 312
L 129 312
L 129 312
L 129 312
L 129 312
L 129 311
L 129 311
L 129 311
L 129 311
L 130 311
L 130 311
L 131 311
L 132 311
L 132 311
L 132 311
L 133 311
L 133 311
L 134 311
L 134 311
L 135 311
L 136 311
L 138 311
L 138 311
L 139 310
L 139 310
L 139 310
L 139 310
L 141 310
L 141 310
L 141 310
L 141 310
L 142 310
L 142 310
L 142 310
L 142 310
L 142 310
L 143 310
L 144 310
L 144 310
L 144 310
L 147 310
L 147 309
L 147 309
L 147 309
L 147 309
L 147 309
L 148 309
L 148 309
L 148 309
L 149 309
L 149 309
L 149 309
L 149 309
L 150 309
L 150 309
L 150 309
L 151 309
L 152 309
L 153 309
L 153 308
L 154 308
L 154 308
L 154 308
L 155 308
L 155 308
L 155 308
L 155 308
L 156 308
L 156 308
L 157 308
L 157 308
L 157 308
L 157 308
L 157 308
L 157 308
L 157 308
L 158 308
L 159 308
L 159 307
L 159 307
L 159 307
L 159 307
L 159 307
L 159 307
L 159 307
L 160 307
L 160 307
L 160 307
L 161 307
L 161 307
L 161 307
L 162 307
L 162 307
L 162 307
L 162 307
L 162 307
L 162 306
L 162 306
L 162 306
L 162 306
L 162 306
L 162 306
L 162 306
L 162 306
L 162 306
L 162 306
L 162 306
L 162 306
L 162 306
L 162 306
L 162 306
L 162 306
L 162 306
L 162 306
L 162 305
L 162 305
L 162 305
L 162 305
L 162 305
L 162 305
L 162 305
L 162 305
L 162 305
L 162 305
L 162 305
L 162 305
L 162 305
L 162 305
L 162 305
L 162 305
L 162 305
L 162 305
L 162 304
L 162 304
L 162 304
L 162 304
L 162 304
L 162 304
L 162 304
L 162 304
L 162 304
L 162 304
L 162 304
L 162 304
L 162 304
L 162 304
L 162 304
L 162 304
L 162 304
L 162 304
L 162 304
L 162 303
L 162 303
L 162 303
L 162 303
L 162 303
L 162 303
L 162 303
L 162 303
L 162 303
L 162 303
L 162 303
L 162 303
L 162 303
L 162 303
L 162 303
L 162 303
L 162 303
L 162 303
L 162 302
L 162 302
L 162 302
L 162 302
L 162 302
L 162 302
L 163 302
L 163 302
L 163 302
L 163 302
L 163 302
L 163 302
L 163 302
L 163 302
L 163 302
L 163 302
L 163 302
L 163 302
L 163 301
L 163 301
L 163 301
L 163 301
L 163 301
L 163 301
L 163 301
L 163 301
L 163 301
L 163 301
L 163 301
L 163 301
L 163 301
L 163 301
L 163 301
L 163 301
L 163 301
L 163 301
L 163 300
L 163 300
L 163 300
L 163 300
L 163 300
L 163 300
L 163 300
L 163 300
L 163 300
L 163 300
L 163 300
L 163 300
L 163 300
L 163 300
L 163 300
L 163 300
L 163 300
L 164 300
L 164 300
L 164 299
L 164 299
L 164 299
L 164 299
L 164 299
L 164 299
L 164 299
L 164 299
L 164 299
L 164 299
L 164 299
L 164 299
L 164 299
L 164 299
L 164 299
L 164 299
L 164 299
L 164 299
L 164 298
L 164 298
L 164 298
L 164 298
L 164 298
L 164 298
L 164 298
L 164 298
L 164 298
L 164 298
L 164 298
L 164 298
L 164 298
L 164 298
L 164 298
L 164 298
L 164 298
L 164 298
L 164 297
L 164 297
L 164 297
L 164 297
L 164 297
L 164 297
L 164 297
L 164 297
L 164 297
L 164 297
L 164 297
L 164 297
L 164 297
L 164 297
L 164 297
L 164 297
L 164 297
L 164 297
L 164 296
L 165 296
L 165 296
L 165 296
L 165 296
L 165 296
L 165 296
L 165 296
L 165 296
L 165 296
L 165 296
L 165 296
L 165 296
L 165 296
L 165 296
L 165 296
L 165 296
L 165 296
L 165 295
L 165 295
L 165 295
L 165 295
L 165 295
L 165 295
L 165 295
L 165 295
L 165 295
L 165 295
L 165 295
L 165 295
L 165 295
L 165 295
L 165 295
L 165 295
L 165 295
L 165 295
L 165 295
L 165 294
L 165 294
L 165 294
L 165 294
L 166 294
L 166 294
L 166 294
L 166 294
L 166 294
L 166 294
L 166 294
L 166 294
L 166 294
L 166 294
L 166 294
L 166 294
L 166 294
L 166 294
L 166 293
L 166 293
L 166 293
L 166 293
L 166 293
L 166 293
L 166 293
L 166 293
L 166 293
L 166 293
L 166 293
L 166 293
L 166 293
L 166 293
L 166 293
L 166 293
L 167 293
L 167 293
L 167 292
L 167 292
L 167 292
L 167 292
L 167 292
L 167 292
L 167 292
L 167 292
L 167 292
L 167 292
L 167 292
L 167 292
L 167 292
L 167 292
L 167 292
L 167 292
L 167 292
L 167 292
L 167 291
L 167 291
L 167 291
L 167 291
L 167 291
L 167 291
L 167 291
L 167 291
L 167 291
L 167 291
L 167 291
L 167 291
L 167 291
L 167 291
L 167 291
L 167 291
L 167 291
L 167 291
L 167 291
L 167 290
L 167 290
L 167 290
L 167 290
L 167 290
L 167 290
L 167 290
L 167 290
L 167 290
L 167 290
L 167 290
L 167 290
L 167 290
L 167 290
L 167 290
L 167 290
L 167 290
L 167 290
L 167 289
L 167 289
L 167 289
L 167 289
L 167 289
L 167 289
L 167 289
L 167 289
L 167 289
L 167 289
L 167 289
L 167 289
L 167 289
L 167 289
L 167 289
L 167 289
L 167 289
L 167 289
L 167 288
L 167 288
L 167 288
L 167 288
L 167 288
L 167 288
L 167 288
L 167 288
L 167 288
L 167 288
L 167 288
L 167 288
L 167 288
L 167 288
L 167 288
L 167 288
L 167 288
L 167 288
L 167 287
L 167 287
L 167 287
L 167 287
L 167 287
L 167 287
L 167 287
L 167 287
L 167 287
L 167 287
L 167 287
L 167 287
L 167 287
L 167 287
L 167 287
L 167 287
L 167 287
L 167 287
L 167 287
L 167 286
L 167 286
L 167 286
L 167 286
L 167 286
L 167 286
L 167 286
L 167 286
L 167 286
L 167 286
L 167 286
L 167 286
L 167 286
L 167 286
L 167 286
L 167 286
L 167 286
L 167 286
L 167 285
L 167 285
L 167 285
L 167 285
L 167 285
L 167 285
L 167 285
L 167 285
L 167 285
L 167 285
L 167 285
L 167 285
L 167 285
L 167 285
L 167 285
L 167 285
L 167 285
L 167 285
L 167 284
L 167 284
L 167 284
L 167 284
L 167 284
L 167 284
L 167 284
L 167 284
L 167 284
L 167 284
L 167 284
L 167 284
L 167 284
L 167 284
L 167 284
L 167 284
L 167 284
L 167 284
L 167 283
L 167 283
L 167 283
L 167 283
L 167 283
L 167 283
L 167 283
L 167 283
L 167 283
L 167 283
L 167 283
L 167 283
L 167 283
L 167 283
L 167 283
L 168 283
L 168 283
L 168 283
L 168 283
L 168 282
L 168 282
L 168 282
L 168 282
L 168 282
L 168 282
L 168 282
L 168 282
L 168 282
L 168 282
L 168 282
L 168 282
L 168 282
L 168 282
L 168 282
L 168 282
L 168 282
L 168 282
L 168 281
L 168 281
L 168 281
L 168 281
L 168 281
L 168 281
L 168 281
L 168 281
L 168 281
L 168 281
L 168 281
L 168 281
L 168 281
L 168 281
L 168 281
L 168 281
L 168 281
L 168 281
L 168 280
L 168 280
L 168 280
L 168 280
L 168 280
L 168 280
L 168 280
L 168 280
L 168 280
L 168 280
L 168 280
L 168 280
L 168 280
L 168 280
L 168 280
L 168 280
L 168 280
L 168 280
L 168 279
L 168 279
L 168 279
L 168 279
L 168 279
L 168 279
L 169 279
L 169 279
L 169 279
L 169 279
L 169 279
L 169 279
L 169 279
L 169 279
L 169 279
L 169 279
L 169 279
L 169 279
L 169 278
L 169 278
L 169 278
L 169 278
L 169 278
L 169 278
L 169 278
L 169 278
L 169 278
L 169 278
L 169 278
L 169 278
L 169 278
L 169 278
L 169 278
L 169 278
L 169 278
L 169 278
L 169 278
L 169 277
L 169 277
L 169 277
L 169 277
L 169 277
L 169 277
L 169 277
L 169 277
L 169 277
L 169 277
L 169 277
L 169 277
L 169 277
L 169 277
L 169 277
L 169 277
L 169 277
L 169 277
L 169 276
L 169 276
L 169 276
L 169 276
L 169 276
L 169 276
L 169 276
L 169 276
L 169 276
L 170 276
L 170 276
L 170 276
L 170 276
L 170 276
L 170 276
L 170 276
L 170 276
L 170 276
L 170 275
L 170 275
L 170 275
L 170 275
L 170 275
L 170 275
L 170 275
L 170 275
L 170 275
L 170 275
L 170 275
L 171 275
L 171 275
L 171 275
L 171 275
L 171 275
L 171 275
L 171 275
L 171 274
L 171 274
L 171 274
L 171 274
L 171 274
L 171 274
L 171 274
L 171 274
L 171 274
L 171 274
L 172 274
L 172 274
L 172 274
L 172 274
L 172 274
L 172 274
L 172 274
L 172 274
L 172 274
L 172 273
L 172 273
L 172 273
L 173 273
L 173 273
L 173 273
L 173 273
L 173 273
L 173 273
L 173 273
L 173 273
L 173 273
L 173 273
L 174 273
L 174 273
L 174 273
L 174 273
L 174 273
L 174 272
L 174 272
L 174 272
L 175 272
L 175 272
L 175 272
L 175 272
L 175 272
L 175 272
L 175 272
L 175 272
L 175 272
L 175 272
L 176 272
L 176 272
L 176 272
L 176 272
L 176 272
L 176 271
L 176 271
L 176 271
L 177 271
L 177 271
L 177 271
L 178 271
L 178 271
L 179 271
L 179 271
L 179 271
L 179 271
L 179 271
L 179 271
L 179 271
L 179 271
L 180 271
L 180 271
L 180 270
L 181 270
L 181 270
L 181 270
L 181 270
L 181 270
L 181 270
L 181 270
L 181 270
L 182 270
L 182 270
L 182 270
L 182 270
L 182 270
L 182 270
L 182 270
L 182 270
L 182 270
L 183 270
L 183 269
L 183 269
L 183 269
L 183 269
L 183 269
L 183 269
L 183 269
L 184 269
L 184 269
L 184 269
L 184 269
L 185 269
L 185 269
L 185 269
L 185 269
L 185 269
L 185 269
L 186 269
L 186 268
L 186 268
L 186 268
L 187 268
L 187 268
L 187 268
L 188 268
L 189 268
L 189 268
L 189 268
L 190 268
L 190 268
L 190 268
L 190 268
L 190 268
L 190 268
L 191 268
L 191 268
L 191 267
L 192 267
L 192 267
L 192 267
L 193 267
L 193 267
L 193 267
L 193 267
L 194 267
L 194 267
L 194 267
L 194 267
L 194 267
L 194 267
L 195 267
L 195 267
L 195 267
L 195 267
L 196 266
L 196 266
L 196 266
L 196 266
L 197 266
L 197 266
L 197 266
L 198 266
L 199 266
L 199 266
L 199 266
L 200 266
L 200 266
L 201 266
L 202 266
L 202 266
L 203 266
L 204 266
L 204 266
L 205 265
L 205 265
L 205 265
L 205 265
L 205 265
L 206 265
L 206 265
L 206 265
L 206 265
L 207 265
L 207 265
L 207 265
L 207 265
L 207 265
L 207 265
L 207 265
L 207 265
L 207 265
L 207 264
L 207 264
L 207 264
L 207 264
L 207 264
L 207 264
L 207 264
L 207 264
L 207 264
L 207 264
L 207 264
L 207 264
L 207 264
L 207 264
L 207 264
L 207 264
L 207 264
L 207 264
L 207 263
L 207 263
L 207 263
L 208 263
L 208 263
L 208 263
L 208 263
L 208 263
L 208 263
L 208 263
L 208 263
L 208 263
L 208 263
L 208 263
L 208 263
L 209 263
L 209 263
L 209 263
L 210 262
L 210 262
L 211 262
L 211 262
L 211 262
L 211 262
L 211 262
L 211 262
L 211 262
L 212 262
L 212 262
L 212 262
L 212 262
L 212 262
L 212 262
L 212 262
L 213 262
L 213 262
L 213 261
L 213 261
L 213 261
L 213 261
L 213 261
L 213 261
L 213 261
L 214 261
L 214 261
L 214 261
L 214 261
L 214 261
L 215 261
L 215 261
L 215 261
L 217 261
L 217 261
L 217 261
L 218 261
L 218 260
L 218 260
L 219 260
L 219 260
L 220 260
L 221 260
L 221 260
L 222 260
L 222 260
L 222 260
L 223 260
L 223 260
L 223 260
L 223 260
L 223 260
L 223 260
L 224 260
L 224 260
L 224 259
L 224 259
L 224 259
L 224 259
L 224 259
L 225 259
L 225 259
L 225 259
L 226 259
L 226 259
L 226 259
L 226 259
L 226 259
L 226 259
L 226 259
L 227 259
L 227 259
L 227 259
L 228 258
L 228 258
L 228 258
L 228 258
L 228 258
L 228 258
L 228 258
L 228 258
L 228 258
L 228 258
L 229 258
L 229 258
L 229 258
L 229 258
L 230 258
L 230 258
L 231 258
L 231 258
L 231 257
L 231 257
L 231 257
L 232 257
L 232 257
L 232 257
L 232 257
L 232 257
L 232 257
L 233 257
L 233 257
L 233 257
L 233 257
L 233 257
L 233 257
L 233 257
L 233 257
L 233 257
L 233 257
L 233 256
L 233 256
L 233 256
L 233 256
L 233 256
L 233 256
L 233 256
L 234 256
L 234 256
L 234 256
L 234 256
L 234 256
L 234 256
L 234 256
L 235 256
L 235 256
L 235 256
L 235 256
L 235 255
L 235 255
L 236 255
L 236 255
L 236 255
L 236 255
L 236 255
L 236 255
L 236 255
L 236 255
L 236 255
L 237 255
L 237 255
L 237 255
L 237 255
L 237 255
L 237 255
L 237 255
L 237 254
L 237 254
L 237 254
L 237 254
L 237 254
L 237 254
L 237 254
L 238 254
L 238 254
L 238 254
L 238 254
L 238 254
L 238 254
L 238 254
L 238 254
L 238 254
L 238 254
L 238 254
L 238 253
L 238 253
L 238 253
L 238 253
L 238 253
L 239 253
L 239 253
L 239 253
L 239 253
L 239 253
L 239 253
L 239 253
L 239 253
L 239 253
L 239 253
L 239 253
L 239 253
L 239 253
L 239 253
L 240 252
L 240 252
L 240 252
L 240 252
L 240 252
L 240 252
L 240 252
L 240 252
L 240 252
L 240 252
L 240 252
L 240 252
L 240 252
L 240 252
L 240 252
L 240 252
L 240 252
L 240 252
L 241 251
L 241 251
L 241 251
L 241 251
L 241 251
L 241 251
L 241 251
L 241 251
L 241 251
L 241 251
L 241 251
L 241 251
L 241 251
L 241 251
L 241 251
L 241 251
L 241 251
L 241 251
L 241 250
L 241 250
L 241 250
L 241 250
L 241 250
L 241 250
L 241 250
L 241 250
L 241 250
L 241 250
L 241 250
L 241 250
L 241 250
L 241 250
L 241 250
L 241 250
L 241 250
L 241 250
L 241 249
L 241 249
L 241 249
L 241 249
L 241 249
L 241 249
L 241 249
L 241 249
L 241 249
L 241 249
L 242 249
L 242 249
L 242 249
L 242 249
L 242 249
L 242 249
L 242 249
L 242 249
L 242 249
L 242 248
L 242 248
L 242 248
L 242 248
L 242 248
L 242 248
L 242 248
L 242 248
L 242 248
L 243 248
L 243 248
L 243 248
L 243 248
L 243 248
L 243 248
L 243 248
L 243 248
L 243 248
L 243 247
L 244 247
L 244 247
L 244 247
L 244 247
L 245 247
L 245 247
L 246 247
L 246 247
L 247 247
L 247 247
L 247 247
L 247 247
L 247 247
L 247 247
L 248 247
L 248 247
L 248 247
L 249 246
L 249 246
L 249 246
L 249 246
L 250 246
L 250 246
L 250 246
L 251 246
L 251 246
L 251 246
L 251 246
L 251 246
L 252 246
L 252 246
L 252 246
L 252 246
L 252 246
L 252 246
L 252 245
L 252 245
L 253 245
L 253 245
L 253 245
L 253 245
L 254 245
L 254 245
L 254 245
L 254 245
L 254 245
L 254 245
L 254 245
L 255 245
L 255 245
L 255 245
L 255 245
L 255 245
L 255 244
L 255 244
L 255 244
L 256 244
L 256 244
L 256 244
L 256 244
L 256 244
L 256 244
L 256 244
L 256 244
L 256 244
L 256 244
L 256 244
L 256 244
L 257 244
L 258 244
L 258 244
L 258 244
L 258 243
L 258 243
L 259 243
L 259 243
L 260 243
L 260 243
L 260 243
L 260 243
L 261 243
L 262 243
L 262 243
L 262 243
L 262 243
L 262 243
L 262 243
L 262 243
L 262 243
L 263 243
L 264 242
L 264 242
L 264 242
L 264 242
L 264 242
L 265 242
L 265 242
L 265 242
L 265 242
L 265 242
L 266 242
L 266 242
L 267 242
L 267 242
L 267 242
L 267 242
L 267 242
L 267 242
L 269 241
L 269 241
L 269 241
L 269 241
L 269 241
L 269 241
L 269 241
L 269 241
L 270 241
L 270 241
L 270 241
L 270 241
L 270 241
L 270 241
L 270 241
L 270 241
L 271 241
L 271 241
L 271 240
L 271 240
L 271 240
L 271 240
L 271 240
L 271 240
L 271 240
L 271 240
L 271 240
L 272 240
L 272 240
L 272 240
L 272 240
L 272 240
L 272 240
L 272 240
L 272 240
L 272 240
L 272 240
L 272 239
L 272 239
L 272 239
L 273 239
L 274 239
L 274 239
L 274 239
L 274 239
L 274 239
L 274 239
L 274 239
L 274 239
L 275 239
L 275 239
L 275 239
L 275 239
L 275 239
L 275 239
L 275 238
L 275 238
L 275 238
L 275 238
L 275 238
L 275 238
L 276 238
L 276 238
L 276 238
L 276 238
L 276 238
L 276 238
L 276 238
L 276 238
L 276 238
L 277 238
L 277 238
L 277 238
L 277 237
L 277 237
L 277 237
L 277 237
L 277 237
L 277 237
L 277 237
L 278 237
L 278 237
L 278 237
L 278 237
L 278 237
L 279 237
L 279 237
L 279 237
L 279 237
L 279 237
L 279 237
L 280 236
L 280 236
L 280 236
L 280 236
L 280 236
L 280 236
L 280 236
L 280 236
L 280 236
L 280 236
L 280 236
L 280 236
L 280 236
L 280 236
L 281 236
L 281 236
L 281 236
L 281 236
L 281 236
L 281 235
L 282 235
L 282 235
L 282 235
L 283 235
L 284 235
L 284 235
L 284 235
L 284 235
L 284 235
L 285 235
L 285 235
L 285 235
L 285 235
L 285 235
L 285 235
L 285 235
L 285 235
L 285 234
L 286 234
L 286 234
L 286 234
L 287 234
L 287 234
L 287 234
L 287 234
L 287 234
L 287 234
L 287 234
L 287 234
L 288 234
L 288 234
L 288 234
L 288 234
L 288 234
L 288 234
L 288 233
L 288 233
L 289 233
L 289 233
L 289 233
L 289 233
L 289 233
L 289 233
L 289 233
L 289 233
L 289 233
L 289 233
L 290 233
L 290 233
L 290 233
L 290 233
L 291 233
L 291 233
L 291 232
L 291 232
L 291 232
L 292 232
L 292 232
L 292 232
L 292 232
L 292 232
L 293 232
L 293 232
L 293 232
L 294 232
L 294 232
L 294 232
L 294 232
L 295 232
L 295 232
L 295 232
L 295 232
L 295 231
L 295 231
L 296 231
L 296 231
L 296 231
L 296 231
L 296 231
L 296 231
L 296 231
L 297 231
L 298 231
L 298 231
L 298 231
L 298 231
L 298 231
L 299 231
L 299 231
L 299 231
L 299 230
L 299 230
L 299 230
L 299 230
L 299 230
L 299 230
L 300 230
L 300 230
L 300 230
L 300 230
L 300 230
L 300 230
L 300 230
L 300 230
L 301 230
L 301 230
L 301 230
L 301 230
L 301 229
L 301 229
L 301 229
L 301 229
L 301 229
L 301 229
L 301 229
L 301 229
L 302 229
L 302 229
L 302 229
L 302 229
L 303 229
L 303 229
L 303 229
L 303 229
L 303 229
L 303 229
L 303 228
L 303 228
L 303 228
L 304 228
L 304 228
L 304 228
L 304 228
L 304 228
L 305 228
L 305 228
L 305 228
L 306 228
L 306 228
L 306 228
L 306 228
L 307 228
L 307 228
L 307 228
L 307 227
L 307 227
L 307 227
L 307 227
L 307 227
L 308 227
L 308 227
L 308 227
L 308 227
L 308 227
L 308 227
L 308 227
L 309 227
L 309 227
L 309 227
L 309 227
L 309 227
L 309 227
L 309 227
L 309 226
L 310 226
L 311 226
L 311 226
L 311 226
L 311 226
L 311 226
L 312 226
L 313 226
L 313 226
L 313 226
L 313 226
L 313 226
L 313 226
L 313 226
L 314 226
L 314 226
L 314 226
L 314 225
L 314 225
L 314 225
L 314 225
L 314 225
L 314 225
L 314 225
L 314 225
L 315 225
L 315 225
L 315 225
L 315 225
L 315 225
L 315 225
L 315 225
L 315 225
L 315 225
L 315 225
L 315 224
L 315 224
L 315 224
L 316 224
L 316 224
L 316 224
L 316 224
L 317 224
L 317 224
L 317 224
L 317 224
L 317 224
L 317 224
L 317 224
L 318 224
L 318 224
L 318 224
L 319 224
L 319 223
L 319 223
L 319 223
L 319 223
L 319 223
L 319 223
L 320 223
L 320 223
L 320 223
L 320 223
L 320 223
L 320 223
L 321 223
L 321 223
L 321 223
L 321 223
L 321 223
L 321 223
L 321 223
L 321 222
L 321 222
L 322 222
L 322 222
L 322 222
L 322 222
L 322 222
L 322 222
L 323 222
L 323 222
L 323 222
L 323 222
L 323 222
L 323 222
L 323 222
L 323 222
L 324 222
L 324 222
L 324 221
L 324 221
L 324 221
L 324 221
L 324 221
L 325 221
L 325 221
L 325 221
L 325 221
L 325 221
L 325 221
L 325 221
L 325 221
L 326 221
L 326 221
L 326 221
L 327 221
L 327 221
L 327 220
L 327 220
L 327 220
L 327 220
L 327 220
L 327 220
L 327 220
L 328 220
L 328 220
L 328 220
L 329 220
L 329 220
L 329 220
L 329 220
L 330 220
L 330 220
L 330 220
L 331 220
L 331 219
L 332 219
L 332 219
L 332 219
L 332 219
L 333 219
L 333 219
L 333 219
L 333 219
L 333 219
L 334 219
L 334 219
L 334 219
L 334 219
L 334 219
L 334 219
L 334 219
L 334 219
L 334 219
L 334 218
L 334 218
L 335 218
L 335 218
L 335 218
L 335 218
L 335 218
L 335 218
L 335 218
L 335 218
L 336 218
L 336 218
L 336 218
L 336 218
L 336 218
L 336 218
L 336 218
L 337 218
L 337 217
L 337 217
L 337 217
L 337 217
L 337 217
L 337 217
L 337 217
L 337 217
L 337 217
L 337 217
L 337 217
L 337 217
L 337 217
L 338 217
L 338 217
L 338 217
L 338 217
L 338 217
L 338 216
L 338 216
L 338 216
L 338 216
L 339 216
L 339 216
L 339 216
L 339 216
L 339 216
L 339 216
L 339 216
L 339 216
L 340 216
L 340 216
L 340 216
L 341 216
L 341 216
L 341 216
L 341 215
L 341 215
L 342 215
L 342 215
L 342 215
L 342 215
L 342 215
L 343 215
L 343 215
L 343 215
L 343 215
L 343 215
L 343 215
L 343 215
L 343 215
L 344 215
L 344 215
L 344 215
L 344 215
L 344 214
L 344 214
L 344 214
L 344 214
L 344 214
L 345 214
L 345 214
L 345 214
L 345 214
L 345 214
L 346 214
L 346 214
L 346 214
L 346 214
L 346 214
L 346 214
L 346 214
L 346 214
L 346 213
L 346 213
L 347 213
L 347 213
L 347 213
L 347 213
L 347 213
L 347 213
L 348 213
L 348 213
L 348 213
L 349 213
L 349 213
L 349 213
L 349 213
L 350 213
L 350 213
L 350 213
L 351 212
L 351 212
L 351 212
L 351 212
L 351 212
L 351 212
L 351 212
L 351 212
L 351 212
L 352 212
L 352 212
L 352 212
L 352 212
L 352 212
L 352 212
L 352 212
L 352 212
L 352 212
L 352 211
L 352 211
L 353 211
L 353 211
L 353 211
L 354 211
L 354 211
L 354 211
L 354 211
L 355 211
L 355 211
L 355 211
L 355 211
L 355 211
L 355 211
L 356 211
L 356 211
L 356 211
L 356 210
L 356 210
L 356 210
L 357 210
L 357 210
L 357 210
L 357 210
L 357 210
L 357 210
L 357 210
L 358 210
L 358 210
L 358 210
L 359 210
L 359 210
L 360 210
L 360 210
L 360 210
L 360 210
L 360 209
L 360 209
L 360 209
L 361 209
L 361 209
L 361 209
L 361 209
L 361 209
L 361 209
L 361 209
L 361 209
L 362 209
L 362 209
L 362 209
L 362 209
L 362 209
L 362 209
L 363 209
L 363 208
L 364 208
L 364 208
L 364 208
L 364 208
L 364 208
L 364 208
L 365 208
L 365 208
L 365 208
L 365 208
L 366 208
L 366 208
L 366 208
L 367 208
L 367 208
L 367 208
L 367 208
L 367 207
L 367 207
L 367 207
L 367 207
L 367 207
L 368 207
L 368 207
L 368 207
L 368 207
L 368 207
L 368 207
L 368 207
L 368 207
L 369 207
L 369 207
L 369 207
L 369 207
L 369 207
L 369 206
L 369 206
L 370 206
L 370 206
L 370 206
L 370 206
L 370 206
L 370 206
L 370 206
L 370 206
L 370 206
L 370 206
L 370 206
L 370 206
L 370 206
L 371 206
L 371 206
L 371 206
L 371 206
L 371 205
L 371 205
L 371 205
L 371 205
L 371 205
L 372 205
L 372 205
L 372 205
L 372 205
L 373 205
L 373 205
L 373 205
L 373 205
L 373 205
L 373 205
L 373 205
L 374 205
L 374 205
L 374 204
L 374 204
L 375 204
L 375 204
L 375 204
L 375 204
L 375 204
L 375 204
L 375 204
L 376 204
L 376 204
L 376 204
L 377 204
L 377 204
L 377 204
L 377 204
L 378 204
L 378 204
L 378 203
L 378 203
L 379 203
L 379 203
L 379 203
L 379 203
L 379 203
L 379 203
L 379 203
L 379 203
L 380 203
L 380 203
L 380 203
L 380 203
L 380 203
L 380 203
L 380 203
L 381 203
L 381 202
L 381 202
L 381 202
L 381 202
L 381 202
L 381 202
L 382 202
L 382 202
L 382 202
L 382 202
L 382 202
L 382 202
L 383 202
L 383 202
L 383 202
L 383 202
L 383 202
L 383 202
L 383 202
L 383 201
L 383 201
L 383 201
L 383 201
L 383 201
L 383 201
L 383 201
L 383 201
L 384 201
L 384 201
L 384 201
L 384 201
L 384 201
L 384 201
L 384 201
L 384 201
L 384 201
L 384 201
L 384 200
L 384 200
L 385 200
L 385 200
L 385 200
L 385 200
L 385 200
L 385 200
L 386 200
L 386 200
L 386 200
L 386 200
L 387 200
L 387 200
L 388 200
L 388 200
L 388 200
L 388 200
L 388 199
L 388 199
L 389 199
L 389 199
L 389 199
L 389 199
L 389 199
L 389 199
L 390 199
L 390 199
L 391 199
L 391 199
L 391 199
L 391 199
L 391 199
L 391 199
L 391 199
L 392 199
L 392 198
L 393 198
L 393 198
L 393 198
L 393 198
L 393 198
L 393 198
L 393 198
L 393 198
L 393 198
L 393 198
L 393 198
L 394 198
L 394 198
L 394 198
L 394 198
L 394 198
L 394 198
L 394 198
L 394 197
L 394 197
L 395 197
L 395 197
L 395 197
L 395 197
L 395 197
L 395 197
L 396 197
L 396 197
L 396 197
L 396 197
L 396 197
L 396 197
L 397 197
L 397 197
L 397 197
L 398 197
L 398 196
L 398 196
L 398 196
L 399 196
L 399 196
L 399 196
L 399 196
L 400 196
L 400 196
L 400 196
L 401 196
L 401 196
L 401 196
L 402 196
L 402 196
L 402 196
L 402 196
L 403 196
L 403 195
L 403 195
L 403 195
L 403 195
L 404 195
L 404 195
L 404 195
L 405 195
L 405 195
L 405 195
L 405 195
L 405 195
L 406 195
L 406 195
L 407 195
L 407 195
L 407 195
L 407 195
L 408 194
L 408 194
L 408 194
L 408 194
L 408 194
L 408 194
L 409 194
L 409 194
L 409 194
L 409 194
L 409 194
L 409 194
L 409 194
L 409 194
L 409 194
L 409 194
L 409 194
L 409 194
L 409 193
L 409 193
L 409 193
L 410 193
L 410 193
L 410 193
L 410 193
L 410 193
L 410 193
L 410 193
L 410 193
L 410 193
L 410 193
L 410 193
L 411 193
L 411 193
L 412 193
L 412 193
L 412 193
L 413 192
L 414 192
L 414 192
L 415 192
L 415 192
L 416 192
L 416 192
L 416 192
L 416 192
L 416 192
L 417 192
L 417 192
L 417 192
L 417 192
L 417 192
L 417 192
L 417 192
L 417 192
L 418 191
L 418 191
L 418 191
L 418 191
L 418 191
L 418 191
L 418 191
L 418 191
L 418 191
L 418 191
L 418 191
L 419 191
L 419 191
L 419 191
L 419 191
L 419 191
L 419 191
L 419 191
L 420 190
L 420 190
L 421 190
L 421 190
L 422 190
L 422 190
L 422 190
L 423 190
L 423 190
L 423 190
L 423 190
L 424 190
L 424 190
L 425 190
L 425 190
L 425 190
L 425 190
L 426 190
L 426 189
L 426 189
L 426 189
L 426 189
L 426 189
L 427 189
L 427 189
L 428 189
L 428 189
L 428 189
L 429 189
L 429 189
L 429 189
L 429 189
L 429 189
L 429 189
L 430 189
L 430 189
L 430 189
L 430 188
L 430 188
L 431 188
L 431 188
L 431 188
L 431 188
L 431 188
L 431 188
L 431 188
L 432 188
L 432 188
L 433 188
L 433 188
L 433 188
L 433 188
L 433 188
L 433 188
L 433 188
L 433 187
L 433 187
L 433 187
L 433 187
L 433 187
L 433 187
L 434 187
L 434 187
L 434 187
L 434 187
L 435 187
L 435 187
L 436 187
L 436 187
L 436 187
L 436 187
L 436 187
L 437 187
L 437 186
L 437 186
L 437 186
L 437 186
L 437 186
L 438 186
L 438 186
L 439 186
L 439 186
L 439 186
L 439 186
L 439 186
L 440 186
L 440 186
L 440 186
L 441 186
L 441 186
L 441 186
L 441 185
L 441 185
L 441 185
L 442 185
L 442 185
L 442 185
L 442 185
L 443 185
L 443 185
L 443 185
L 444 185
L 444 185
L 444 185
L 444 185
L 444 185
L 444 185
L 444 185
L 445 185
L 445 185
L 445 184
L 446 184
L 446 184
L 446 184
L 446 184
L 446 184
L 448 184
L 448 184
L 448 184
L 448 184
L 449 184
L 449 184
L 449 184
L 450 184
L 450 184
L 450 184
L 450 184
L 450 184
L 450 183
L 450 183
L 451 183
L 451 183
L 452 183
L 452 183
L 452 183
L 452 183
L 453 183
L 454 183
L 454 183
L 454 183
L 455 183
L 455 183
L 456 183
L 456 183
L 456 183
L 456 183
L 456 182
L 456 182
L 456 182
L 457 182
L 457 182
L 457 182
L 457 182
L 457 182
L 457 182
L 457 182
L 457 182
L 457 182
L 458 182
L 458 182
L 458 182
L 458 182
L 458 182
L 458 182
L 459 181
L 459 181
L 459 181
L 459 181
L 459 181
L 460 181
L 460 181
L 460 181
L 460 181
L 460 181
L 461 181
L 461 181
L 461 181
L 461 181
L 461 181
L 461 181
L 462 181
L 463 181
L 463 181
L 463 180
L 463 180
L 464 180
L 464 180
L 464 180
L 464 180
L 464 180
L 464 180
L 464 180
L 465 180
L 465 180
L 465 180
L 465 180
L 465 180
L 465 180
L 465 180
L 465 180
L 466 180
L 466 179
L 466 179
L 466 179
L 466 179
L 466 179
L 466 179
L 466 179
L 467 179
L 467 179
L 467 179
L 467 179
L 467 179
L 467 179
L 467 179
L 467 179
L 467 179
L 467 179
L 468 179
L 468 178
L 468 178
L 469 178
L 469 178
L 469 178
L 469 178
L 470 178
L 470 178
L 470 178
L 470 178
L 470 178
L 471 178
L 471 178
L 471 178
L 471 178
L 471 178
L 472 178
L 472 178
L 472 177
L 472 177
L 472 177
L 472 177
L 472 177
L 473 177
L 473 177
L 473 177
L 473 177
L 473 177
L 473 177
L 473 177
L 473 177
L 473 177
L 473 177
L 473 177
L 473 177
L 473 177
L 474 176
L 474 176
L 474 176
L 474 176
L 474 176
L 474 176
L 475 176
L 475 176
L 475 176
L 475 176
L 475 176
L 475 176
L 475 176
L 475 176
L 475 176
L 475 176
L 475 176
L 475 176
L 475 176
L 475 175
L 475 175
L 476 175
L 476 175
L 476 175
L 476 175
L 476 175
L 476 175
L 476 175
L 476 175
L 477 175
L 477 175
L 478 175
L 479 175
L 479 175
L 479 175
L 479 175
L 479 175
L 479 174
L 479 174
L 479 174
L 479 174
L 479 174
L 479 174
L 480 174
L 480 174
L 480 174
L 480 174
L 482 174
L 482 174
L 482 174
L 482 174
L 483 174
L 483 174
L 484 174
L 484 174
L 484 173
L 484 173
L 484 173
L 484 173
L 484 173
L 485 173
L 485 173
L 485 173
L 485 173
L 485 173
L 485 173
L 486 173
L 486 173
L 486 173
L 486 173
L 486 173
L 487 173
L 487 173
L 487 172
L 487 172
L 487 172
L 488 172
L 488 172
L 488 172
L 488 172
L 488 172
L 488 172
L 488 172
L 488 172
L 489 172
L 489 172
L 489 172
L 489 172
L 490 172
L 490 172
L 490 172
L 491 172
L 491 171
L 491 171
L 492 171
L 492 171
L 492 171
L 492 171
L 493 171
L 493 171
L 493 171
L 493 171
L 493 171
L 493 171
L 494 171
L 494 171
L 494 171
L 494 171
L 494 171
L 495 171
L 495 170
L 495 170
L 495 170
L 496 170
L 496 170
L 496 170
L 497 170
L 497 170
L 497 170
L 497 170
L 497 170
L 497 170
L 497 170
L 497 170
L 497 170
L 497 170
L 497 170
L 497 170
L 497 169
L 497 169
L 497 169
L 497 169
L 498 169
L 498 169
L 498 169
L 498 169
L 498 169
L 498 169
L 498 169
L 498 169
L 498 169
L 498 169
L 498 169
L 498 169
L 498 169
L 498 169
L 498 168
L 498 168
L 498 168
L 498 168
L 498 168
L 498 168
L 498 168
L 498 168
L 498 168
L 498 168
L 498 168
L 498 168
L 498 168
L 498 168
L 498 168
L 498 168
L 498 168
L 498 168
L 498 168
L 498 167
L 498 167
L 498 167
L 498 167
L 498 167
L 498 167
L 499 167
L 499 167
L 499 167
L 499 167
L 499 167
L 500 167
L 500 167
L 500 167
L 500 167
L 500 167
L 500 167
L 500 167
L 500 166
L 501 166
L 501 166
L 501 166
L 501 166
L 501 166
L 502 166
L 502 166
L 502 166
L 503 166
L 503 166
L 503 166
L 504 166
L 504 166
L 504 166
L 504 166
L 505 166
L 505 166
L 506 165
L 506 165
L 507 165
L 507 165
L 507 165
L 507 165
L 507 165
L 508 165
L 508 165
L 508 165
L 509 165
L 509 165
L 509 165
L 509 165
L 509 165
L 509 165
L 510 165
L 510 165
L 511 164
L 511 164
L 512 164
L 512 164
L 512 164
L 512 164
L 512 164
L 512 164
L 513 164
L 513 164
L 513 164
L 514 164
L 514 164
L 514 164
L 515 164
L 515 164
L 516 164
L 516 164
L 516 163
L 517 163
L 517 163
L 517 163
L 517 163
L 517 163
L 517 163
L 517 163
L 517 163
L 518 163
L 518 163
L 518 163
L 519 163
L 519 163
L 519 163
L 519 163
L 519 163
L 519 163
L 519 163
L 519 162
L 519 162
L 519 162
L 519 162
L 520 162
L 520 162
L 520 162
L 520 162
L 520 162
L 521 162
L 522 162
L 522 162
L 523 162
L 523 162
L 523 162
L 523 162
L 523 162
L 523 162
L 523 161
L 524 161
L 524 161
L 524 161
L 524 161
L 525 161
L 526 161
L 526 161
L 526 161
L 526 161
L 526 161
L 527 161
L 527 161
L 527 161
L 528 161
L 528 161
L 528 161
L 528 161
L 528 160
L 528 160
L 529 160
L 529 160
L 529 160
L 529 160
L 529 160
L 530 160
L 530 160
L 531 160
L 531 160
L 532 160
L 532 160
L 532 160
L 533 160
L 533 160
L 533 160
L 533 160
L 534 159
L 534 159
L 534 159
L 534 159
L 534 159
L 535 159
L 535 159
L 535 159
L 535 159
L 535 159
L 535 159
L 536 159
L 536 159
L 536 159
L 536 159
L 536 159
L 536 159
L 536 159
L 536 159
L 536 158
L 537 158
L 537 158
L 537 158
L 537 158
L 537 158
L 538 158
L 538 158
L 538 158
L 538 158
L 538 158
L 538 158
L 539 158
L 540 158
L 540 158
L 540 158
L 540 158
L 541 158
L 541 157
L 541 157
L 541 157
L 541 157
L 542 157
L 542 157
L 542 157
L 542 157
L 542 157
L 542 157
L 542 157
L 542 157
L 543 157
L 543 157
L 543 157
L 543 157
L 543 157
L 543 157
L 543 156
L 543 156
L 544 156
L 544 156
L 544 156
L 544 156
L 544 156
L 545 156
L 545 156
L 545 156
L 545 156
L 545 156
L 545 156
L 545 156
L 545 156
L 545 156
L 546 156
L 546 156
L 546 155
L 547 155
L 547 155
L 547 155
L 547 155
L 547 155
L 547 155
L 547 155
L 547 155
L 547 155
L 547 155
L 548 155
L 548 155
L 548 155
L 549 155
L 549 155
L 549 155
L 549 155
L 549 155
L 549 154
L 549 154
L 549 154
L 550 154
L 550 154
L 550 154
L 550 154
L 550 154
L 550 154
L 550 154
L 551 154
L 551 154
L 551 154
L 551 154
L 552 154
L 552 154
L 552 154
L 552 154
L 552 153
L 552 153
L 552 153
L 552 153
L 553 153
L 553 153
L 553 153
L 553 153
L 553 153
L 553 153
L 554 153
L 554 153
L 554 153
L 555 153
L 555 153
L 555 153
L 555 153
L 556 153
L 556 152
L 557 152
L 557 152
L 557 152
L 557 152
L 557 152
L 557 152
L 558 152
L 558 152
L 558 152
L 558 152
L 558 152
L 558 152
L 558 152
L 558 152
L 559 152
L 559 152
L 559 152
L 559 151
L 559 151
L 559 151
L 559 151
L 559 151
L 560 151
L 560 151
L 560 151
L 560 151
L 560 151
L 560 151
L 560 151
L 560 151
L 560 151
L 560 151
L 561 151
L 561 151
L 562 151
L 562 151
L 562 150
L 562 150
L 563 150
L 564 150
L 564 150
L 564 150
L 564 150
L 564 150
L 565 150
L 565 150
L 565 150
L 565 150
L 565 150
L 565 150
L 565 150
L 565 150
L 566 150
L 566 150
L 566 149
L 566 149
L 567 149
L 567 149
L 568 149
L 568 149
L 568 149
L 568 149
L 568 149
L 569 149
L 569 149
L 569 149
L 569 149
L 569 149
L 569 149
L 569 149
L 569 149
L 570 149
L 570 148
L 570 148
L 570 148
L 570 148
L 570 148
L 570 148
L 571 148
L 571 148
L 571 148
L 571 148
L 571 148
L 571 148
L 571 148
L 572 148
L 572 148
L 572 148
L 573 148
L 573 148
L 573 147
L 574 147
L 574 147
L 574 147
L 574 147
L 574 147
L 575 147
L 575 147
L 575 147
L 575 147
L 575 147
L 575 147
L 576 147
L 577 147
L 577 147
L 577 147
L 577 147
L 577 147
L 577 147
L 578 146
L 578 146
L 578 146
L 578 146
L 578 146
L 579 146
L 579 146
L 579 146
L 579 146
L 579 146
L 580 146
L 580 146
L 580 146
L 581 146
L 581 146
L 581 146
L 581 146
L 581 146
L 582 145
L 582 145
L 582 145
L 583 145
L 583 145
L 583 145
L 583 145
L 584 145
L 584 145
L 584 145
L 584 145
L 584 145
L 584 145
L 585 145
L 585 145
L 585 145
L 585 145
L 585 145
L 585 144
L 585 144
L 585 144
L 585 144
L 585 144
L 585 144
L 586 144
L 586 144
L 586 144
L 586 144
L 587 144
L 587 144
L 587 144
L 588 144
L 588 144
L 588 144
L 589 144
L 589 144
L 589 143
L 589 143
L 589 143
L 589 143
L 589 143
L 589 143
L 589 143
L 590 143
L 590 143
L 590 143
L 590 143
L 590 143
L 590 143
L 590 143
L 590 143
L 590 143
L 590 143
L 590 143
L 590 142
L 590 142
L 591 142
L 591 142
L 591 142
L 592 142
L 592 142
L 593 142
L 593 142
L 593 142
L 593 142
L 593 142
L 593 142
L 593 142
L 593 142
L 594 142
L 594 142
L 594 142
L 594 142
L 594 141
L 594 141
L 594 141
L 594 141
L 594 141
L 594 141
L 595 141
L 595 141
L 595 141
L 596 141
L 596 141
L 596 141
L 596 141
L 596 141
L 597 141
L 597 141
L 597 141
L 597 141
L 597 140
L 597 140
L 597 140
L 597 140
L 598 140
L 598 140
L 598 140
L 598 140
L 598 140
L 598 140
L 599 140
L 599 140
L 599 140
L 599 140
L 599 140
L 600 140
L 600 140
L 600 140
L 600 139
L 600 139
L 600 139
L 600 139
L 600 139
L 600 139
L 600 139
L 601 139
L 601 139
L 601 139
L 601 139
L 601 139
L 601 139
L 602 139
L 602 139
L 603 139
L 603 139
L 603 139
L 603 138
L 604 138
L 604 138
L 604 138
L 605 138
L 605 138
L 605 138
L 605 138
L 605 138
L 605 138
L 605 138
L 605 138
L 605 138
L 605 138
L 605 138
L 605 138
L 606 138
L 606 138
L 606 138
L 607 137
L 607 137
L 607 137
L 607 137
L 607 137
L 607 137
L 607 137
L 607 137
L 608 137
L 608 137
L 608 137
L 608 137
L 608 137
L 608 137
L 608 137
L 608 137
L 608 137
L 608 137
L 609 136
L 609 136
L 609 136
L 609 136
L 610 136
L 610 136
L 610 136
L 610 136
L 610 136
L 610 136
L 611 136
L 611 136
L 611 136
L 611 136
L 612 136
L 612 136
L 612 136
L 612 136
L 612 135
L 612 135
L 613 135
L 613 135
L 613 135
L 613 135
L 613 135
L 613 135
L 613 135
L 614 135
L 614 135
L 614 135
L 614 135
L 615 135
L 615 135
L 615 135
L 615 135
L 615 135
L 616 134
L 616 134
L 616 134
L 616 134
L 616 134
L 616 134
L 616 134
L 617 134
L 617 134
L 617 134
L 617 134
L 617 134
L 617 134
L 617 134
L 617 134
L 618 134
L 618 134
L 618 134
L 618 134
L 618 133
L 618 133
L 619 133
L 619 133
L 619 133
L 619 133
L 620 133
L 620 133
L 620 133
L 621 133
L 621 133
L 621 133
L 621 133
L 621 133
L 621 133
L 621 133
L 621 133
L 621 133
L 621 132
L 621 132
L 622 132
L 622 132
L 622 132
L 622 132
L 622 132
L 622 132
L 623 132
L 623 132
L 623 132
L 623 132
L 623 132
L 624 132
L 624 132
L 624 132
L 624 132
L 624 132
L 624 131
L 624 131
L 624 131
L 624 131
L 624 131
L 624 131
L 624 131
L 624 131
L 624 131
L 624 131
L 624 131
L 624 131
L 624 131
L 624 131
L 624 131
L 624 131
L 624 131
L 624 131
L 624 130
L 624 130
L 624 130
L 624 130
L 624 130
L 624 130
L 624 130
L 624 130
L 624 130
L 624 130
L 624 130
L 624 130
L 624 130
L 624 130
L 624 130
L 624 130
L 625 130
L 625 130
L 625 130
L 625 129
L 625 129
L 625 129
L 625 129
L 626 129
L 626 129
L 626 129
L 626 129
L 626 129
L 626 129
L 626 129
L 626 129
L 626 129
L 626 129
L 626 129
L 626 129
L 626 129
L 626 129
L 626 128
L 627 128
L 627 128
L 627 128
L 627 128
L 627 128
L 627 128
L 627 128
L 627 128
L 627 128
L 628 128
L 628 128
L 628 128
L 628 128
L 628 128
L 628 128
L 628 128
L 628 128
L 628 127
L 628 127
L 628 127
L 628 127
L 628 127
L 628 127
L 628 127
L 629 127
L 629 127
L 629 127
L 629 127
L 629 127
L 630 127
L 630 127
L 630 127
L 630 127
L 630 127
L 631 127
L 631 126
L 631 126
L 631 126
L 631 126
L 631 126
L 631 126
L 631 126
L 631 126
L 631 126
L 632 126
L 632 126
L 632 126
L 633 126
L 633 126
L 633 126
L 633 126
L 633 126
L 633 126
L 633 125
L 633 125
L 633 125
L 633 125
L 634 125
L 634 125
L 634 125
L 634 125
L 635 125
L 635 125
L 635 125
L 635 125
L 636 125
L 636 125
L 636 125
L 636 125
L 637 125
L 637 125
L 637 125
L 637 124
L 637 124
L 637 124
L 638 124
L 638 124
L 638 124
L 638 124
L 638 124
L 638 124
L 638 124
L 638 124
L 638 124
L 638 124
L 638 124
L 639 124
L 639 124
L 639 124
L 639 124
L 639 123
L 640 123
L 640 123
L 640 123
L 641 123
L 641 123
L 641 123
L 641 123
L 641 123
L 642 123
L 642 123
L 642 123
L 642 123
L 642 123
L 642 123
L 643 123
L 643 123
L 643 123
L 643 122
L 644 122
L 644 122
L 644 122
L 645 122
L 645 122
L 645 122
L 645 122
L 645 122
L 645 122
L 645 122
L 645 122
L 646 122
L 646 122
L 646 122
L 646 122
L 646 122
L 646 122
L 646 121
L 647 121
L 647 121
L 647 121
L 647 121
L 647 121
L 648 121
L 648 121
L 648 121
L 648 121
L 648 121
L 649 121
L 649 121
L 649 121
L 649 121
L 649 121
L 650 121
L 650 121
L 650 121
L 650 120
L 651 120
L 651 120
L 651 120
L 651 120
L 651 120
L 651 120
L 651 120
L 651 120
L 651 120
L 652 120
L 652 120
L 652 120
L 652 120
L 652 120
L 652 120
L 652 120
L 652 120
L 652 119
L 652 119
L 652 119
L 653 119
L 653 119
L 653 119
L 654 119
L 654 119
L 654 119
L 655 119
L 655 119
L 655 119
L 655 119
L 655 119
L 655 119
L 655 119
L 655 119
L 656 119
L 656 118
L 656 118
L 657 118
L 657 118
L 657 118
L 657 118
L 657 118
L 657 118
L 657 118
L 657 118
L 657 118
L 658 118
L 658 118
L 658 118
L 658 118
L 658 118
L 658 118
L 659 118
L 659 117
L 659 117
L 659 117
L 660 117
L 660 117
L 660 117
L 660 117
L 660 117
L 660 117
L 660 117
L 660 117
L 660 117
L 660 117
L 660 117
L 660 117
L 660 117
L 660 117
L 661 117
L 661 117
L 661 116
L 661 116
L 662 116
L 662 116
L 663 116
L 663 116
L 663 116
L 663 116
L 663 116
L 663 116
L 663 116
L 663 116
L 663 116
L 663 116
L 663 116
L 663 116
L 663 116
L 663 116
L 663 115
L 663 115
L 663 115
L 663 115
L 663 115
L 663 115
L 663 115
L 663 115
L 664 115
L 664 115
L 664 115
L 664 115
L 664 115
L 664 115
L 664 115
L 664 115
L 664 115
L 664 115
L 664 114
L 664 114
L 664 114
L 664 114
L 664 114
L 664 114
L 665 114
L 665 114
L 665 114
L 665 114
L 665 114
L 665 114
L 665 114
L 665 114
L 665 114
L 665 114
L 665 114
L 665 114
L 665 113
L 665 113
L 665 113
L 665 113
L 665 113
L 665 113
L 665 113
L 665 113
L 666 113
L 666 113
L 666 113
L 666 113
L 666 113
L 666 113
L 666 113
L 666 113
L 666 113
L 666 113
L 666 113
L 667 112
L 667 112
L 667 112
L 668 112
L 668 112
L 669 112
L 669 112
L 669 112
L 669 112
L 669 112
L 669 112
L 669 112
L 669 112
L 669 112
L 669 112
L 669 112
L 669 112
L 670 112
L 670 111
L 670 111
L 670 111
L 670 111
L 670 111
L 670 111
L 670 111
L 670 111
L 671 111
L 671 111
L 671 111
L 671 111
L 671 111
L 671 111
L 671 111
L 671 111
L 671 111
L 672 111
L 672 110
L 672 110
L 672 110
L 672 110
L 672 110
L 673 110
L 673 110
L 673 110
L 673 110
L 674 110
L 674 110
L 674 110
L 674 110
L 674 110
L 675 110
L 675 110
L 675 110
L 675 110
L 675 109
L 676 109
L 676 109
L 676 109
L 676 109
L 677 109
L 678 109
L 679 109
L 679 109
L 679 109
L 679 109
L 679 109
L 680 109
L 680 109
L 680 109
L 680 109
L 680 109
L 681 109
L 681 108
L 681 108
L 681 108
L 681 108
L 681 108
L 683 108
L 683 108
L 683 108
L 684 108
L 684 108
L 684 108
L 684 108
L 684 108
L 685 108
L 685 108
L 685 108
L 685 108
L 685 108
L 685 108
L 685 107
L 685 107
L 685 107
L 685 107
L 686 107
L 686 107
L 686 107
L 687 107
L 687 107
L 688 107
L 688 107
L 688 107
L 688 107
L 688 107
L 688 107
L 688 107
L 688 107
L 688 107
L 688 106
L 689 106
L 689 106
L 689 106
L 689 106
L 689 106
L 689 106
L 690 106
L 690 106
L 690 106
L 690 106
L 690 106
L 691 106
L 691 106
L 691 106
L 691 106
L 691 106
L 691 106
L 691 105
L 692 105
L 692 105
L 692 105
L 692 105
L 692 105
L 693 105
L 693 105
L 693 105
L 693 105
L 693 105
L 694 105
L 694 105
L 694 105
L 694 105
L 694 105
L 695 105
L 695 105
L 695 104
L 695 104
L 695 104
L 695 104
L 695 104
L 696 104
L 696 104
L 696 104
L 696 104
L 696 104
L 696 104
L 697 104
L 698 104
L 698 104
L 698 104
L 698 104
L 698 104
L 698 104
L 698 104
L 699 103
L 699 103
L 699 103
L 699 103
L 699 103
L 699 103
L 700 103
L 700 103
L 700 103
L 700 103
L 700 103
L 700 103
L 700 103
L 701 103
L 701 103
L 701 103
L 701 103
L 701 103
L 702 102
L 702 102
L 702 102
L 702 102
L 703 102
L 703 102
L 704 102
L 704 102
L 704 102
L 704 102
L 704 102
L 704 102
L 705 102
L 705 102
L 705 102
L 706 102
L 706 102
L 706 102
L 706 101
L 706 101
L 707 101
L 707 101
L 707 101
L 707 101
L 707 101
L 708 101
L 708 101
L 708 101
L 708 101
L 708 101
L 709 101
L 709 101
L 709 101
L 709 101
L 709 101
L 710 101
L 711 100
L 711 100
L 711 100
L 711 100
L 711 100
L 712 100
L 712 100
L 712 100
L 712 100
L 712 100
L 712 100
L 713 100
L 713 100
L 713 100
L 713 100
L 713 100
L 713 100
L 713 100
L 714 100
L 714 99
L 714 99
L 714 99
L 714 99
L 714 99
L 714 99
L 714 99
L 715 99
L 715 99
L 715 99
L 715 99
L 715 99
L 716 99
L 716 99
L 717 99
L 717 99
L 717 99
L 717 99
L 717 98
L 717 98
L 717 98
L 717 98
L 717 98
L 717 98
L 717 98
L 718 98
L 718 98
L 718 98
L 718 98
L 719 98
L 720 98
L 720 98
L 720 98
L 720 98
L 721 98
L 721 98
L 722 97
L 722 97
L 722 97
L 723 97
L 723 97
L 723 97
L 723 97
L 723 97
L 724 97
L 724 97
L 724 97
L 725 97
L 725 97
L 725 97
L 725 97
L 725 97
L 725 97
L 726 97
L 726 96
L 726 96
L 726 96
L 727 96
L 727 96
L 727 96
L 728 96
L 728 96
L 728 96
L 728 96
L 728 96
L 728 96
L 729 96
L 729 96
L 729 96
L 729 96
L 729 96
L 729 96
L 729 96
L 729 95
L 730 95
L 730 95
L 730 95
L 730 95
L 730 95
L 730 95
L 731 95
L 731 95
L 731 95
L 731 95
L 731 95
L 731 95
L 731 95
L 731 95
L 731 95
L 731 95
L 731 95
L 731 94
L 732 94
L 732 94
L 732 94
L 732 94
L 732 94
L 732 94
L 733 94
L 733 94
L 733 94
L 733 94
L 733 94
L 734 94
L 734 94
L 734 94
L 734 94
L 735 94
L 735 94
L 736 93
L 736 93
L 736 93
L 736 93
L 736 93
L 736 93
L 736 93
L 736 93
L 737 93
L 737 93
L 737 93
L 738 93
L 738 93
L 738 93
L 738 93
L 739 93
L 739 93
L 739 93
L 740 92
L 740 92
L 741 92
L 741 92
L 741 92
L 741 92
L 741 92
L 741 92
L 741 92
L 741 92
L 742 92
L 742 92
L 742 92
L 742 92
L 742 92
L 743 92
L 743 92
L 743 92
L 743 91
L 743 91
L 743 91
L 744 91
L 744 91
L 744 91
L 744 91
L 744 91
L 744 91
L 745 91
L 745 91
L 745 91
L 745 91
L 745 91
L 745 91
L 745 91
L 745 91
L 745 91
L 746 91
L 746 90
L 747 90
L 747 90
L 747 90
L 747 90
L 747 90
L 747 90
L 747 90
L 747 90
L 747 90
L 747 90
L 748 90
L 748 90
L 749 90
L 749 90
L 750 90
L 750 90
L 750 90
L 750 89
L 751 89
L 751 89
L 751 89
L 751 89
L 751 89
L 751 89
L 751 89
L 752 89
L 752 89
L 752 89
L 752 89
L 752 89
L 753 89
L 753 89
L 753 89
L 753 89
L 754 89
L 754 88
L 754 88
L 754 88
L 755 88
L 755 88
L 755 88
L 755 88
L 755 88
L 756 88
L 756 88
L 756 88
L 756 88
L 756 88
L 757 88
L 757 88
L 757 88
L 758 88
L 758 88
L 758 87
L 758 87
L 759 87
L 759 87
L 759 87
L 759 87
L 760 87
L 760 87
L 760 87
L 760 87
L 760 87
L 761 87
L 761 87
L 761 87
L 761 87
L 761 87
L 761 87
L 761 87
L 761 87
L 761 86
L 761 86
L 761 86
L 761 86
L 762 86
L 762 86
L 762 86
L 762 86
L 762 86
L 762 86
L 762 86
L 763 86
L 763 86
L 763 86
L 764 86
L 764 86
L 764 86
L 764 86
L 765 85
L 765 85
L 766 85
L 766 85
L 766 85
L 766 85
L 766 85
L 767 85
L 767 85
L 768 85
L 768 85
L 769 85
L 769 85
L 769 85
L 770 85
L 770 85
L 770 85
L 771 85
L 771 84
L 772 84
L 772 84
L 773 84
L 773 84
L 773 84
L 773 84
L 774 84
L 774 84
L 774 84
L 774 84
L 774 84
L 774 84
L 774 84
L 774 84
L 774 84
L 774 84
L 774 84
L 775 83
L 775 83
L 775 83
L 775 83
L 776 83
L 776 83
L 776 83
L 776 83
L 776 83
L 776 83
L 776 83
L 776 83
L 776 83
L 777 83
L 777 83
L 777 83
L 777 83
L 777 83
L 777 83
L 778 82
L 779 82
L 779 82
L 779 82
L 779 82
L 779 82
L 780 82
L 780 82
L 780 82
L 780 82
L 781 82
L 781 82
L 781 82
L 781 82
L 781 82
L 781 82
L 781 82
L 781 82
L 782 81
L 783 81
L 783 81
L 783 81
L 783 81
L 783 81
L 784 81
L 784 81
L 784 81
L 784 81
L 784 81
L 784 81
L 784 81
L 785 81
L 785 81
L 785 81
L 785 81
L 785 81
L 785 80
L 785 80
L 786 80
L 786 80
L 786 80
L 786 80
L 787 80
L 787 80
L 787 80
L 787 80
L 787 80
L 787 80
L 788 80
L 788 80
L 788 80
L 789 80
L 789 80
L 789 80
L 789 79
L 789 79
L 790 79
L 790 79
L 790 79
L 790 79
L 790 79
L 790 79
L 790 79
L 790 79
L 791 79
L 791 79
L 791 79
L 792 79
L 792 79
L 793 79
L 793 79
L 793 79
L 793 79
L 793 78
L 793 78
L 794 78
L 794 78
L 794 78
L 794 78
L 794 78
L 795 78
L 795 78
L 795 78
L 795 78
L 795 78
L 795 78
L 795 78
L 795 78
L 796 78
L 796 78
L 797 78
L 797 77
L 797 77
L 797 77
L 797 77
L 798 77
L 798 77
L 798 77
L 798 77
L 799 77
L 799 77
L 799 77
L 799 77
L 799 77
L 799 77
L 800 77
L 801 77
L 801 77
L 801 77
L 801 76
L 802 76
L 802 76
L 802 76
L 802 76
L 803 76
L 803 76
L 803 76
L 803 76
L 803 76
L 804 76
L 804 76
L 804 76
L 804 76
L 804 76
L 805 76
L 805 76
L 805 76
L 805 75
L 805 75
L 805 75
L 805 75
L 805 75
L 805 75
L 805 75
L 805 75
L 806 75
L 806 75
L 806 75
L 806 75
L 807 75
L 807 75
L 807 75
L 807 75
L 808 75
L 808 75
L 808 74
L 808 74
L 808 74
L 808 74
L 808 74
L 808 74
L 808 74
L 808 74
L 808 74
L 809 74
L 809 74
L 809 74
L 809 74
L 810 74
L 810 74
L 810 74
L 810 74
L 810 74
L 810 74
L 810 73
L 810 73
L 811 73
L 811 73
L 811 73
L 811 73
L 812 73
L 812 73
L 812 73
L 812 73
L 812 73
L 812 73
L 812 73
L 812 73
L 813 73
L 813 73
L 813 73
L 814 73
L 814 72
L 814 72
L 815 72
L 815 72
L 815 72
L 816 72
L 816 72
L 816 72
L 816 72
L 816 72
L 816 72
L 817 72
L 817 72
L 817 72
L 817 72
L 817 72
L 818 72
L 818 72
L 818 71
L 818 71
L 818 71
L 818 71
L 818 71
L 818 71
L 818 71
L 818 71
L 818 71
L 818 71
L 818 71
L 818 71
L 818 71
L 819 71
L 819 71
L 819 71
L 819 71
L 819 71
L 819 70
L 819 70
L 819 70
L 819 70
L 819 70
L 819 70
L 819 70
L 819 70
L 819 70
L 819 70
L 819 70
L 819 70
L 819 70
L 819 70
L 819 70
L 819 70
L 819 70
L 819 70
L 819 70
L 819 69
L 819 69
L 819 69
L 819 69
L 820 69
L 820 69
L 820 69
L 820 69
L 820 69
L 820 69
L 820 69
L 820 69
L 820 69
L 821 69
L 821 69
L 821 69
L 821 69
L 821 69
L 821 68
L 821 68
L 821 68
L 822 68
L 822 68
L 822 68
L 822 68
L 822 68
L 822 68
L 823 68
L 823 68
L 823 68
L 823 68
L 823 68
L 823 68
L 823 68
L 823 68
L 824 68
L 824 67
L 824 67
L 824 67
L 825 67
L 825 67
L 825 67
L 826 67
L 826 67
L 827 67
L 827 67
L 827 67
L 827 67
L 828 67
L 828 67
L 828 67
L 828 67
L 828 67
L 828 67
L 828 66
L 828 66
L 828 66
L 828 66
L 828 66
L 828 66
L 828 66
L 828 66
L 828 66
L 828 66
L 829 66
L 829 66
L 829 66
L 829 66
L 829 66
L 829 66
L 829 66
L 829 66
L 829 66
L 830 65
L 830 65
L 830 65
L 830 65
L 830 65
L 830 65
L 830 65
L 830 65
L 830 65
L 830 65
L 830 65
L 830 65
L 830 65
L 831 65
L 831 65
L 831 65
L 831 65
L 831 65
L 831 64
L 831 64
L 831 64
L 831 64
L 831 64
L 831 64
L 831 64
L 831 64
L 832 64
L 832 64
L 832 64
L 832 64
L 832 64
L 832 64
L 832 64
L 832 64
L 832 64
L 833 64
L 833 63
L 833 63
L 833 63
L 833 63
L 833 63
L 834 63
L 834 63
L 834 63
L 834 63
L 835 63
L 835 63
L 835 63
L 835 63
L 835 63
L 836 63
L 836 63
L 836 63
L 836 63
L 836 62
L 836 62
L 836 62
L 837 62
L 837 62
L 837 62
L 837 62
L 837 62
L 837 62
L 838 62
L 838 62
L 840 62
L 840 62
L 840 62
L 840 62
L 841 62
L 841 62
L 841 62
L 841 62
L 841 61
L 841 61
L 841 61
L 842 61
L 842 61
L 842 61
L 842 61
L 842 61
L 842 61
L 842 61
L 842 61
L 843 61
L 843 61
L 843 61
L 844 61
L 844 61
L 844 61
L 844 61
L 845 60
L 845 60
L 845 60
L 845 60
L 845 60
L 845 60
L 846 60
L 846 60
L 846 60
L 846 60
L 846 60
L 846 60
L 846 60
L 847 60
L 847 60
L 848 60
L 848 60
L 848 60
L 848 59
L 849 59
L 849 59
L 849 59
L 849 59
L 849 59
L 850 59
L 850 59
L 850 59
L 850 59
L 850 59
L 850 59
L 850 59
L 850 59
L 851 59
L 851 59
L 851 59
L 851 59
L 851 58
L 851 58
L 851 58
L 851 58
L 851 58
L 851 58
L 851 58
L 852 58
L 852 58
L 852 58
L 852 58
L 852 58
L 852 58
L 853 58
L 853 58
L 853 58
L 854 58
L 854 58
L 854 57
L 855 57
L 855 57
L 855 57
L 855 57
L 855 57
L 855 57
L 855 57
L 856 57
L 856 57
L 856 57
L 856 57
L 856 57
L 857 57
L 857 57
L 857 57
L 857 57
L 857 57
L 858 57
L 858 56
L 858 56
L 858 56
L 858 56
L 858 56
L 858 56
L 858 56
L 858 56
L 859 56
L 859 56
L 859 56
L 859 56
L 859 56
L 859 56
L 859 56
L 859 56
L 859 56
L 860 56
L 860 55
L 861 55
L 861 55
L 861 55
L 861 55
L 862 55
L 862 55
L 862 55
L 862 55
L 862 55
L 862 55
L 862 55
L 862 55
L 862 55
L 862 55
L 863 55
L 863 55
L 863 55
L 864 54
L 864 54
L 864 54
L 864 54
L 864 54
L 864 54
L 865 54
L 865 54
L 866 54
L 866 54
L 866 54
L 866 54
L 866 54
L 867 54
L 867 54
L 867 54
L 867 54
L 868 54
L 868 53
L 868 53
L 868 53
L 868 53
L 869 53
L 869 53
L 869 53
L 869 53
L 869 53
L 869 53
L 870 53
L 870 53
L 870 53
L 871 53
L 871 53
L 871 53
L 871 53
L 872 53
L 872 53
L 872 52
L 872 52
L 872 52
L 872 52
L 872 52
L 872 52
L 872 52
L 872 52
L 872 52
L 873 52
L 873 52
L 873 52
L 873 52
L 873 52
L 873 52
L 874 52
L 874 52
L 874 52
L 874 51
L 874 51
L 874 51
L 874 51
L 874 51
L 874 51
L 874 51
L 875 51
L 875 51
L 875 51
L 875 51
L 875 51
L 875 51
L 875 51
L 875 51
L 875 51
L 875 51
L 875 51
L 876 50
L 876 50
L 876 50
L 876 50
L 876 50
L 876 50
L 876 50
L 876 50
L 877 50
L 877 50
L 877 50
L 877 50
L 877 50
L 877 50
L 877 50
L 877 50
L 878 50
L 878 50
L 878 49
L 878 49
L 878 49
L 878 49
L 878 49
L 878 49
L 878 49
L 879 49
L 879 49
L 879 49
L 879 49
L 879 49
L 879 49
L 879 49
L 879 49
L 879 49
L 879 49
L 879 49
L 879 49
L 879 48
L 879 48
L 879 48
L 879 48
L 879 48
L 880 48
L 880 48
L 880 48
L 880 48
L 880 48
L 880 48
L 880 48
L 880 48
L 880 48
L 880 48
L 880 48
L 880 48
L 880 48
L 881 47
L 881 47
L 881 47
L 881 47
L 881 47
L 881 47
L 881 47
L 881 47
L 881 47
L 881 47
L 882 47
L 882 47
L 882 47
L 883 47
L 883 47
L 883 47
L 883 47
L 883 47
L 883 46
L 883 46
L 884 46
L 884 46
L 884 46
L 884 46
L 884 46
L 884 46
L 884 46
L 884 46
L 884 46
L 884 46
L 884 46
L 884 46
L 884 46
L 884 46
L 885 46
L 885 46
L 885 45
L 885 45
L 885 45
L 885 45
L 885 45
L 885 45
L 885 45
L 885 45
L 885 45
L 885 45
L 885 45
L 885 45
L 885 45
L 885 45
L 885 45
L 885 45
L 885 45
L 885 45
L 885 45
L 885 44
L 885 44
L 885 44
L 885 44
L 885 44
L 885 44
L 885 44
L 885 44
L 885 44
L 885 44
L 885 44
L 885 44
L 885 44
L 885 44
L 885 44
L 885 44
L 886 44
L 886 44
L 886 43
L 886 43
L 886 43
L 886 43
L 886 43
L 886 43
L 886 43
L 886 43
L 886 43
L 886 43
L 886 43
L 886 43
L 886 43
L 886 43
L 887 43
L 887 43
L 887 43
L 887 43
L 887 42
L 887 42
L 887 42
L 887 42
L 887 42
L 887 42
L 888 42
L 888 42
L 888 42
L 888 42
L 888 42
L 888 42
L 888 42
L 888 42
L 889 42
L 889 42
L 889 42
L 889 42
L 889 41
L 889 41
L 889 41
L 889 41
L 890 41
L 890 41
L 890 41
L 890 41
L 890 41
L 890 41
L 891 41
L 891 41
L 891 41
L 891 41
L 891 41
L 892 41
L 892 41
L 892 41
L 892 40
L 893 40
L 893 40
L 893 40
L 893 40
L 893 40
L 893 40
L 893 40
L 893 40
L 893 40
L 893 40
L 893 40
L 893 40
L 893 40
L 894 40
L 894 40
L 894 40
L 894 40
L 894 40
L 894 39
L 894 39
L 894 39
L 894 39
L 894 39
L 895 39
L 895 39
L 895 39
L 895 39
L 895 39
L 895 39
L 895 39
L 895 39
L 895 39
L 895 39
L 895 39
L 895 39
L 895 39
L 895 38
L 896 38
L 896 38
L 896 38
L 896 38
L 896 38
L 896 38
L 897 38
L 897 38
L 897 38
L 897 38
L 897 38
L 898 38
L 898 38
L 898 38
L 898 38
L 898 38
L 898 38
L 898 37
L 898 37
L 898 37
L 898 37
L 898 37
L 898 37
L 898 37
L 899 37
L 899 37
L 899 37
L 899 37
L 900 37
L 900 37
L 900 37
L 900 37
L 900 37
L 900 37
L 900 37
L 900 36
L 900 36
L 901 36
L 901 36
L 901 36
L 901 36
L 901 36
L 901 36
L 901 36
L 901 36
L 901 36
L 901 36
L 901 36
L 901 36
L 901 36
L 901 36
L 901 36
L 901 36
L 901 36
L 901 35
L 901 35
L 901 35
L 902 35
L 902 35
L 902 35
L 902 35
L 902 35
L 902 35
L 902 35
L 902 35
L 902 35
L 902 35
L 902 35
L 902 35
L 902 35
L 903 35
L 903 35
L 903 34
L 903 34
L 903 34
L 903 34
L 903 34
L 903 34
L 904 34
L 904 34
L 904 34
L 904 34
L 904 34
L 904 34
L 904 34
L 904 34
L 904 34
L 904 34
L 904 34
L 904 34
L 904 33
L 904 33
L 905 33
L 905 33
L 905 33
L 905 33
L 905 33
L 905 33
L 905 33
L 905 33
L 905 33
L 905 33
L 905 33
L 905 33
L 906 33
L 906 33
L 906 33
L 906 33
L 906 32
L 906 32
L 906 32
L 907 32
L 907 32
L 908 32
L 908 32
L 908 32
L 909 32
L 909 32
L 909 32
L 909 32
L 909 32
L 909 32
L 909 32
L 910 32
L 910 32
L 910 32
L 910 32
L 910 31
L 910 31
L 910 31
L 910 31
L 910 31
L 910 31
L 910 31
L 910 31
L 911 31
L 911 31
L 911 31
L 911 31
L 911 31
L 911 31
L 911 31
L 911 31
L 911 31
L 911 31
L 911 30
L 911 30
L 911 30
L 911 30
L 912 30
L 912 30
L 912 30
L 912 30
L 912 30
L 912 30
L 912 30
L 912 30
L 912 30
L 912 30
L 912 30
L 912 30
L 912 30
L 912 30
L 912 29
L 912 29
L 913 29
L 913 29
L 913 29
L 913 29
L 913 29
L 913 29
L 913 29
L 913 29
L 913 29
L 913 29
L 913 29
L 913 29
L 913 29
L 913 29
L 913 29
L 913 29
L 913 28
L 913 28
L 913 28
L 913 28
L 913 28
L 913 28
L 913 28
L 913 28
L 913 28
L 913 28
L 913 28
L 914 28
L 914 28
L 914 28
L 914 28
L 914 28
L 914 28
L 914 28
L 914 28
L 915 27
L 915 27
L 915 27
L 915 27
L 915 27
L 916 27
L 916 27
L 916 27
L 916 27
L 916 27
L 916 27
L 916 27
L 916 27
L 916 27
L 917 27
L 917 27
L 917 27
L 917 27
L 917 26
L 917 26
L 917 26
L 917 26
L 918 26
L 918 26
L 918 26
L 918 26
L 919 26
L 919 26
L 919 26
L 919 26
L 919 26
L 919 26
L 919 26
L 919 26
L 919 26
L 920 26
L 920 25
L 920 25
L 921 25
L 921 25
L 921 25
L 921 25
L 921 25
L 921 25
L 921 25
L 922 25
L 922 25
L 922 25
L 923 25
L 923 25
L 923 25
L 923 25
L 924 25
L 924 25
L 924 24
L 924 24
L 924 24
L 924 24
L 924 24
L 924 24
L 925 24
L 926 24
L 926 24
L 926 24
L 926 24
L 927 24
L 927 24
L 927 24
L 927 24
L 927 24
L 927 24
L 927 24
L 928 23
L 928 23
L 928 23
L 928 23
L 928 23
L 928 23
L 928 23
L 928 23
L 928 23
L 928 23
L 929 23
L 929 23
L 929 23
L 930 23
L 930 23
L 931 23
L 931 23
L 931 23
L 931 23
L 932 22
L 932 22
L 932 22
L 932 22
L 932 22
L 932 22
L 932 22
L 932 22
L 932 22
L 932 22
L 933 22
L 933 22
L 933 22
L 933 22
L 933 22
L 933 22
L 933 22
L 933 22
L 933 21
L 933 21
L 934 21
L 934 21
L 934 21
L 934 21
L 934 21
L 934 21
L 935 21
L 935 21
L 935 21
L 936 21
L 936 21
L 936 21
L 937 21
L 937 21
L 937 21
L 937 21
L 937 20
L 937 20
L 937 20
L 938 20
L 938 20
L 938 20
L 938 20
L 938 20
L 938 20
L 938 20
L 938 20
L 938 20
L 939 20
L 939 20
L 940 20
L 940 20
L 940 20
L 940 20
L 940 19
L 940 19
L 941 19
L 941 19
L 941 19
L 942 19
L 942 19
L 942 19
L 942 19
L 942 19
L 942 19
L 942 19
L 942 19
L 942 19
L 942 19
L 942 19
L 943 19
L 943 19
L 943 19
L 943 18
L 943 18
L 944 18
L 944 18
L 944 18
L 944 18
L 944 18
L 944 18
L 944 18
L 945 18
L 945 18
L 945 18
L 945 18
L 945 18
L 945 18
L 945 18
L 945 18
L 946 18
L 946 17
L 946 17
L 946 17
L 946 17
L 946 17
L 947 17
L 947 17
L 947 17
L 947 17
L 947 17
L 947 17
L 947 17
L 947 17
L 948 17
L 948 17
L 948 17
L 948 17
L 948 17
L 948 16
L 949 16
L 949 16
L 949 16
L 950 16
L 950 16
L 950 16
L 950 16
L 950 16
L 950 16
L 950 16
L 951 16
L 951 16
L 951 16
L 951 16
L 952 16
L 952 16
L 952 16
L 953 15
L 953 15
L 953 15
L 953 15
L 953 15
L 953 15
L 953 15
L 953 15
L 953 15
L 954 15
L 954 15
L 954 15
L 954 15
L 954 15
L 954 15
L 954 15
L 954 15
L 954 15
L 954 15
L 954 14
L 955 14
L 955 14
L 955 14
L 955 14
L 955 14
L 955 14
L 955 14
L 955 14
L 955 14
L 955 14
L 955 14
L 955 14
L 955 14
L 955 14
L 955 14
L 955 14
L 955 14
L 955 13
L 955 13
L 955 13
L 955 13
L 955 13
L 955 13
L 955 13
L 955 13
L 955 13
L 956 13
L 956 13
L 956 13
L 956 13
L 956 13
L 956 13
L 956 13
L 956 13
L 956 13
L 957 12
L 957 12
L 957 12
L 957 12
L 957 12
L 957 12
L 957 12
L 957 12
L 957 12" style="stroke-width:2;stroke:rgba(129,199,239,1.0);fill:none"/></svg>